<svg width="41" height="40" viewBox="0 0 41 40" fill="none" xmlns="http://www.w3.org/2000/svg">
<path d="M27.2319 22.0909L25.277 24.6473C24.8858 25.1588 24.2787 25.4588 23.6348 25.4588H20.005C19.7195 25.4588 19.4881 25.2274 19.4881 24.942C19.4881 24.6566 19.7195 24.4252 20.005 24.4252H23.151C23.8272 24.4252 24.3935 23.8718 24.3805 23.1957C24.368 22.5406 23.833 22.0133 23.1748 22.0133H19.557C18.5183 21.0146 16.9154 20.8977 15.7428 21.7353L15.3535 22.0133V27.8707H18.799H19.4881H24.3416C25.3968 27.8707 26.3795 27.3342 26.9501 26.4466L28.967 23.3091C29.0771 23.1379 29.1355 22.9388 29.1355 22.7354C29.1356 21.7208 27.8481 21.285 27.2319 22.0909Z" fill="#FFA143"/>
<path d="M13.8026 20.9805H12.011C11.7255 20.9805 11.4941 21.2119 11.4941 21.4973V28.3883C11.4941 28.6737 11.7255 28.9051 12.011 28.9051H13.8026C14.0881 28.9051 14.3195 28.6737 14.3195 28.3883V21.4973C14.3195 21.2119 14.0881 20.9805 13.8026 20.9805Z" fill="#FFA143"/>
<path d="M21.3583 14.1211C21.2532 14.2017 21.1952 14.3238 21.1753 14.4297C21.1478 14.5757 21.1826 14.7114 21.2641 14.7753C21.2928 14.7978 21.3244 14.8199 21.3583 14.8417V14.1211Z" fill="#FFA143"/>
<path d="M21.7268 19.8774C24.1016 19.8774 26.0337 17.9454 26.0337 15.5706C26.0337 13.1957 24.1016 11.2637 21.7268 11.2637C19.352 11.2637 17.4199 13.1957 17.4199 15.5706C17.4199 17.9454 19.352 19.8774 21.7268 19.8774ZM20.4231 16.9787C20.5272 16.8195 20.7408 16.7747 20.9 16.879C21.0861 17.0007 21.2027 17.0535 21.3585 17.0754V15.6203C21.1384 15.5195 20.9739 15.4224 20.839 15.3165C20.553 15.0923 20.4225 14.7032 20.4982 14.3011C20.5808 13.8629 20.8858 13.5142 21.2942 13.3912C21.3159 13.3847 21.3373 13.3787 21.3585 13.3731V13.1587C21.3585 12.9684 21.5128 12.8142 21.703 12.8142C21.8933 12.8142 22.0476 12.9684 22.0476 13.1587V13.3354C22.3821 13.3933 22.6185 13.558 22.7331 13.6894C22.8581 13.8329 22.8431 14.0505 22.6996 14.1755C22.5569 14.2998 22.3408 14.2857 22.2155 14.1443C22.2076 14.1364 22.1528 14.0837 22.0476 14.0448V15.1581C22.1087 15.1808 22.1699 15.2029 22.2299 15.2241C22.8355 15.4382 23.1724 15.9988 23.0681 16.6192C22.987 17.1014 22.6201 17.5904 22.0476 17.7357V17.9824C22.0476 18.1727 21.8933 18.327 21.703 18.327C21.5128 18.327 21.3585 18.1727 21.3585 17.9824V17.7687C21.0803 17.7447 20.8497 17.6695 20.5228 17.4557C20.3635 17.3515 20.3189 17.138 20.4231 16.9787Z" fill="#FFA143"/>
<path d="M22.3898 16.5052C22.4124 16.3705 22.4217 16.0496 22.0488 15.8926V16.9993C22.2426 16.8883 22.3584 16.692 22.3898 16.5052Z" fill="#FFA143"/>
<rect x="0.745522" y="0.661538" width="38.6769" height="38.6769" rx="19.3385" stroke="#DBDEE9" stroke-width="1.32308"/>
</svg>
